{
  "accessors": [
    {
      "bufferView": 2,
      "componentType": 5126,
      "count": 164,
      "max": [
        9.27299976348877,
        140.44400024414063,
        32.6963005065918
      ],
      "min": [
        -6.299600124359131,
        50.644500732421875,
        14.112500190734863
      ],
      "type": "VEC3"
    },
    {
      "bufferView": 2,
      "byteOffset": 1968,
      "componentType": 5126,
      "count": 164,
      "max": [
        0.9991916418075562,
        0.9944985508918762,
        0.9938292503356934
      ],
      "min": [
        -0.9993780851364136,
        -0.09999622404575348,
        -0.9994669556617737
      ],
      "type": "VEC3"
    },
    {
      "bufferView": 1,
      "componentType": 5126,
      "count": 164,
      "max": [
        0.9962000250816345,
        0.9824000000953674
      ],
      "min": [
        0.0044999998062849045,
        0.003700000001117587
      ],
      "type": "VEC2"
    },
    {
      "bufferView": 0,
      "componentType": 5125,
      "count": 672,
      "type": "SCALAR"
    },
    {
      "bufferView": 2,
      "byteOffset": 3936,
      "componentType": 5126,
      "count": 4,
      "max": [
        58.714698791503906,
        147.8697052001953,
        -33.80080032348633
      ],
      "min": [
        -67.49530029296875,
        -83.97139739990234,
        -33.80080032348633
      ],
      "type": "VEC3"
    },
    {
      "bufferView": 2,
      "byteOffset": 3984,
      "componentType": 5126,
      "count": 4,
      "max": [
        -0.0,
        -0.0,
        1.0
      ],
      "min": [
        -0.0,
        -0.0,
        1.0
      ],
      "type": "VEC3"
    },
    {
      "bufferView": 1,
      "byteOffset": 1312,
      "componentType": 5126,
      "count": 4,
      "max": [
        1.0,
        1.0
      ],
      "min": [
        0.0,
        0.0
      ],
      "type": "VEC2"
    },
    {
      "bufferView": 0,
      "byteOffset": 2688,
      "componentType": 5125,
      "count": 6,
      "type": "SCALAR"
    },
    {
      "bufferView": 2,
      "byteOffset": 4032,
      "componentType": 5126,
      "count": 9575,
      "max": [
        56.707698822021484,
        114.58209991455078,
        74.96520233154297
      ],
      "min": [
        -55.43349838256836,
        -94.43499755859375,
        -10.565600395202637
      ],
      "type": "VEC3"
    },
    {
      "bufferView": 2,
      "byteOffset": 118932,
      "componentType": 5126,
      "count": 9575,
      "max": [
        0.9999500513076782,
        0.9996216893196106,
        0.9993906021118164
      ],
      "min": [
        -0.9999843835830688,
        -0.9999880790710449,
        -0.9999094009399414
      ],
      "type": "VEC3"
    },
    {
      "bufferView": 3,
      "componentType": 5126,
      "count": 9575,
      "max": [
        0.999971866607666,
        0.9999991059303284,
        0.9992899894714355,
        1.0
      ],
      "min": [
        -0.9999454617500305,
        -0.9999558925628662,
        -0.9999539256095886,
        -1.0
      ],
      "type": "VEC4"
    },
    {
      "bufferView": 1,
      "byteOffset": 1344,
      "componentType": 5126,
      "count": 9575,
      "max": [
        0.9970999956130981,
        0.9962999820709229
      ],
      "min": [
        0.0020000000949949026,
        0.0026000000070780516
      ],
      "type": "VEC2"
    },
    {
      "bufferView": 0,
      "byteOffset": 2712,
      "componentType": 5125,
      "count": 35676,
      "type": "SCALAR"
    },
    {
      "bufferView": 2,
      "byteOffset": 233832,
      "componentType": 5126,
      "count": 9981,
      "max": [
        56.591800689697266,
        114.67259979248047,
        74.96520233154297
      ],
      "min": [
        -55.36399841308594,
        -94.48519897460938,
        -10.565600395202637
      ],
      "type": "VEC3"
    },
    {
      "bufferView": 2,
      "byteOffset": 353604,
      "componentType": 5126,
      "count": 9981,
      "max": [
        0.9997434020042419,
        0.9999998807907104,
        0.9998305439949036
      ],
      "min": [
        -0.9999275207519531,
        -0.999996542930603,
        -0.9999492168426514
      ],
      "type": "VEC3"
    },
    {
      "bufferView": 3,
      "byteOffset": 153200,
      "componentType": 5126,
      "count": 9981,
      "max": [
        0.9999057650566101,
        0.9999879002571106,
        0.9999338388442993,
        1.0
      ],
      "min": [
        -0.9999996423721313,
        -1.0,
        -0.9990453720092773,
        -1.0
      ],
      "type": "VEC4"
    },
    {
      "bufferView": 1,
      "byteOffset": 77944,
      "componentType": 5126,
      "count": 9981,
      "max": [
        0.9973000288009644,
        0.9959999918937683
      ],
      "min": [
        0.0032999999821186066,
        0.0017000000225380063
      ],
      "type": "VEC2"
    },
    {
      "bufferView": 0,
      "byteOffset": 145416,
      "componentType": 5125,
      "count": 31044,
      "type": "SCALAR"
    },
    {
      "bufferView": 2,
      "byteOffset": 473376,
      "componentType": 5126,
      "count": 2375,
      "max": [
        56.45159912109375,
        102.39720153808594,
        58.11029815673828
      ],
      "min": [
        -55.26729965209961,
        -57.592201232910156,
        -3.050299882888794
      ],
      "type": "VEC3"
    },
    {
      "bufferView": 2,
      "byteOffset": 501876,
      "componentType": 5126,
      "count": 2375,
      "max": [
        0.9999500513076782,
        0.9985443949699402,
        0.9970364570617676
      ],
      "min": [
        -0.9999732971191406,
        -0.9991917610168457,
        -0.9997578263282776
      ],
      "type": "VEC3"
    },
    {
      "bufferView": 3,
      "byteOffset": 312896,
      "componentType": 5126,
      "count": 2375,
      "max": [
        0.9988284111022949,
        0.9999843239784241,
        0.9971870183944702,
        1.0
      ],
      "min": [
        -0.9997262954711914,
        -0.999879777431488,
        -0.9998782277107239,
        -1.0
      ],
      "type": "VEC4"
    },
    {
      "bufferView": 1,
      "byteOffset": 157792,
      "componentType": 5126,
      "count": 2375,
      "max": [
        0.991100013256073,
        0.9957000017166138
      ],
      "min": [
        0.0024999999441206455,
        0.0015999999595806003
      ],
      "type": "VEC2"
    },
    {
      "bufferView": 0,
      "byteOffset": 269592,
      "componentType": 5125,
      "count": 11580,
      "type": "SCALAR"
    }
  ],
  "asset": {
    "extras": {
      "author": "Oleh (https://sketchfab.com/oleg.sytnikov)",
      "license": "CC-BY-4.0 (http://creativecommons.org/licenses/by/4.0/)",
      "source": "https://sketchfab.com/3d-models/mig-21-chibi-8a46e5b9d03d41a6b7611c1b5d6aacb6",
      "title": "MiG-21 Chibi"
    },
    "generator": "Sketchfab-16.51.0",
    "version": "2.0"
  },
  "bufferViews": [
    {
      "buffer": 0,
      "byteLength": 315912,
      "name": "floatBufferViews",
      "target": 34963
    },
    {
      "buffer": 0,
      "byteLength": 176792,
      "byteOffset": 315912,
      "byteStride": 8,
      "name": "floatBufferViews",
      "target": 34962
    },
    {
      "buffer": 0,
      "byteLength": 530376,
      "byteOffset": 492704,
      "byteStride": 12,
      "name": "floatBufferViews",
      "target": 34962
    },
    {
      "buffer": 0,
      "byteLength": 350896,
      "byteOffset": 1023080,
      "byteStride": 16,
      "name": "floatBufferViews",
      "target": 34962
    }
  ],
  "buffers": [
    {
      "byteLength": 1373976,
      "uri": "scene.bin"
    }
  ],
  "extensionsUsed": [
    "KHR_materials_emissive_strength",
    "KHR_materials_specular"
  ],
  "images": [
    {
      "uri": "textures/forsage_baseColor.png"
    },
    {
      "uri": "textures/forsage_emissive.png"
    },
    {
      "uri": "textures/lend_baseColor.png"
    },
    {
      "uri": "textures/mig21_baseColor.png"
    },
    {
      "uri": "textures/mig21_metallicRoughness.png"
    },
    {
      "uri": "textures/mig21_emissive.jpeg"
    },
    {
      "uri": "textures/mig21_normal.png"
    }
  ],
  "materials": [
    {
      "alphaMode": "BLEND",
      "doubleSided": true,
      "emissiveFactor": [
        1.0,
        1.0,
        1.0
      ],
      "emissiveTexture": {
        "index": 1
      },
      "extensions": {
        "KHR_materials_emissive_strength": {
          "emissiveStrength": 10.0
        },
        "KHR_materials_specular": {
          "specularColorFactor": [
            1.0,
            1.0,
            1.0
          ],
          "specularFactor": 0.0
        }
      },
      "name": "forsage",
      "pbrMetallicRoughness": {
        "baseColorFactor": [
          0.0,
          0.0,
          0.0,
          0.09927591463414634
        ],
        "baseColorTexture": {
          "index": 0
        },
        "metallicFactor": 0.0,
        "roughnessFactor": 0.0
      }
    },
    {
      "alphaMode": "BLEND",
      "doubleSided": true,
      "extensions": {
        "KHR_materials_specular": {
          "specularColorFactor": [
            1.0,
            1.0,
            1.0
          ],
          "specularFactor": 0.0
        }
      },
      "name": "lend",
      "pbrMetallicRoughness": {
        "baseColorFactor": [
          1.0,
          1.0,
          1.0,
          0.5931783537
        ],
        "baseColorTexture": {
          "index": 2
        },
        "metallicFactor": 0.0,
        "roughnessFactor": 0.8675685976
      }
    },
    {
      "alphaMode": "BLEND",
      "doubleSided": true,
      "emissiveFactor": [
        1.0,
        1.0,
        1.0
      ],
      "emissiveTexture": {
        "index": 5
      },
      "name": "mig21",
      "normalTexture": {
        "index": 6
      },
      "occlusionTexture": {
        "index": 4
      },
      "pbrMetallicRoughness": {
        "baseColorTexture": {
          "index": 3
        },
        "metallicRoughnessTexture": {
          "index": 4
        }
      }
    }
  ],
  "meshes": [
    {
      "name": "Object_0",
      "primitives": [
        {
          "attributes": {
            "NORMAL": 1,
            "POSITION": 0,
            "TEXCOORD_0": 2
          },
          "indices": 3,
          "material": 0,
          "mode": 4
        }
      ]
    },
    {
      "name": "Object_1",
      "primitives": [
        {
          "attributes": {
            "NORMAL": 5,
            "POSITION": 4,
            "TEXCOORD_0": 6
          },
          "indices": 7,
          "material": 1,
          "mode": 4
        }
      ]
    },
    {
      "name": "Object_2",
      "primitives": [
        {
          "attributes": {
            "NORMAL": 9,
            "POSITION": 8,
            "TANGENT": 10,
            "TEXCOORD_0": 11
          },
          "indices": 12,
          "material": 2,
          "mode": 4
        }
      ]
    },
    {
      "name": "Object_3",
      "primitives": [
        {
          "attributes": {
            "NORMAL": 14,
            "POSITION": 13,
            "TANGENT": 15,
            "TEXCOORD_0": 16
          },
          "indices": 17,
          "material": 2,
          "mode": 4
        }
      ]
    },
    {
      "name": "Object_4",
      "primitives": [
        {
          "attributes": {
            "NORMAL": 19,
            "POSITION": 18,
            "TANGENT": 20,
            "TEXCOORD_0": 21
          },
          "indices": 22,
          "material": 2,
          "mode": 4
        }
      ]
    }
  ],
  "nodes": [
    {
      "children": [
        1
      ],
      "matrix": [
        1.0,
        0.0,
        0.0,
        0.0,
        0.0,
        2.220446049250313e-16,
        -1.0,
        0.0,
        0.0,
        1.0,
        2.220446049250313e-16,
        0.0,
        0.0,
        0.0,
        0.0,
        1.0
      ],
      "name": "Sketchfab_model"
    },
    {
      "children": [
        2,
        3,
        4,
        5,
        6
      ],
      "name": "MiG_21_chibi.obj.cleaner.materialmerger.gles"
    },
    {
      "mesh": 0,
      "name": "Object_2"
    },
    {
      "mesh": 1,
      "name": "Object_3"
    },
    {
      "mesh": 2,
      "name": "Object_4"
    },
    {
      "mesh": 3,
      "name": "Object_5"
    },
    {
      "mesh": 4,
      "name": "Object_6"
    }
  ],
  "samplers": [
    {
      "magFilter": 9729,
      "minFilter": 9987,
      "wrapS": 10497,
      "wrapT": 10497
    }
  ],
  "scene": 0,
  "scenes": [
    {
      "name": "Sketchfab_Scene",
      "nodes": [
        0
      ]
    }
  ],
  "textures": [
    {
      "sampler": 0,
      "source": 0
    },
    {
      "sampler": 0,
      "source": 1
    },
    {
      "sampler": 0,
      "source": 2
    },
    {
      "sampler": 0,
      "source": 3
    },
    {
      "sampler": 0,
      "source": 4
    },
    {
      "sampler": 0,
      "source": 5
    },
    {
      "sampler": 0,
      "source": 6
    }
  ]
}
